<svg xmlns="http://www.w3.org/2000/svg" viewBox="0 0 1024 1024"><defs><linearGradient id="bg" x1="0" y1="0" x2="1024" y2="1024" gradientUnits="userSpaceOnUse"><stop offset="0" stop-color="#a855f7"/><stop offset="1" stop-color="#7e22ce"/></linearGradient></defs><rect width="1024" height="1024" rx="230" fill="url(#bg)"/><g transform="rotate(0 512 512)"><path d="M 486 168 C 416 166 306 168 326 168 C 226 168 168 226 168 326 L 168 354 C 168 454 226 486 326 486 L 354 486 C 416 486 458 458 472 472 C 458 458 486 416 486 354 L 486 168 Z" fill="white"/><circle cx="352" cy="354" r="45" fill="url(#bg)"/><path d="M 352 354 L 470 470" stroke="url(#bg)" stroke-width="26" stroke-linecap="round"/><circle cx="470" cy="470" r="14" fill="url(#bg)"/></g><g transform="rotate(90 512 512)"><path d="M 486 168 C 416 166 306 168 326 168 C 226 168 168 226 168 326 L 168 354 C 168 454 226 486 326 486 L 354 486 C 416 486 458 458 472 472 C 458 458 486 416 486 354 L 486 168 Z" fill="white"/><circle cx="352" cy="354" r="45" fill="url(#bg)"/><path d="M 352 354 L 470 470" stroke="url(#bg)" stroke-width="26" stroke-linecap="round"/><circle cx="470" cy="470" r="14" fill="url(#bg)"/></g><g transform="rotate(180 512 512)"><path d="M 486 168 C 416 166 306 168 326 168 C 226 168 168 226 168 326 L 168 354 C 168 454 226 486 326 486 L 354 486 C 416 486 458 458 472 472 C 458 458 486 416 486 354 L 486 168 Z" fill="white"/><circle cx="352" cy="354" r="45" fill="url(#bg)"/><path d="M 352 354 L 470 470" stroke="url(#bg)" stroke-width="26" stroke-linecap="round"/><circle cx="470" cy="470" r="14" fill="url(#bg)"/></g><g transform="rotate(270 512 512)"><path d="M 486 168 C 416 166 306 168 326 168 C 226 168 168 226 168 326 L 168 354 C 168 454 226 486 326 486 L 354 486 C 416 486 458 458 472 472 C 458 458 486 416 486 354 L 486 168 Z" fill="white"/><circle cx="352" cy="354" r="45" fill="url(#bg)"/><path d="M 352 354 L 470 470" stroke="url(#bg)" stroke-width="26" stroke-linecap="round"/><circle cx="470" cy="470" r="14" fill="url(#bg)"/></g></svg>